<svg width="80" height="50" viewBox="0 0 80 50" fill="none" xmlns="http://www.w3.org/2000/svg">
<circle cx="2.5" cy="47.5" r="2.5" fill="#2DAB52"/>
<circle cx="17.5" cy="47.5" r="2.5" fill="#2DAB52"/>
<circle cx="32.5" cy="47.5" r="2.5" fill="#2DAB52"/>
<circle cx="2.5" cy="32.5" r="2.5" fill="#2DAB52"/>
<circle cx="17.5" cy="32.5" r="2.5" fill="#2DAB52"/>
<circle cx="32.5" cy="32.5" r="2.5" fill="#2DAB52"/>
<circle cx="2.5" cy="17.5" r="2.5" fill="#2DAB52"/>
<circle cx="17.5" cy="17.5" r="2.5" fill="#2DAB52"/>
<circle cx="32.5" cy="17.5" r="2.5" fill="#2DAB52"/>
<circle cx="2.5" cy="2.5" r="2.5" fill="#2DAB52"/>
<circle cx="17.5" cy="2.5" r="2.5" fill="#2DAB52"/>
<circle cx="32.5" cy="2.5" r="2.5" fill="#2DAB52"/>
<circle cx="47.5" cy="47.5" r="2.5" fill="#2DAB52"/>
<circle cx="62.5" cy="47.5" r="2.5" fill="#2DAB52"/>
<circle cx="77.5" cy="47.5" r="2.5" fill="#2DAB52"/>
<circle cx="47.5" cy="32.5" r="2.5" fill="#2DAB52"/>
<circle cx="62.5" cy="32.5" r="2.5" fill="#2DAB52"/>
<circle cx="77.5" cy="32.5" r="2.5" fill="#2DAB52"/>
<circle cx="47.5" cy="17.5" r="2.5" fill="#2DAB52"/>
<circle cx="62.5" cy="17.5" r="2.5" fill="#2DAB52"/>
<circle cx="77.5" cy="17.5" r="2.5" fill="#2DAB52"/>
<circle cx="47.5" cy="2.5" r="2.5" fill="#2DAB52"/>
<circle cx="62.5" cy="2.5" r="2.5" fill="#2DAB52"/>
<circle cx="77.5" cy="2.5" r="2.5" fill="#2DAB52"/>
</svg>
