<svg width="10" height="18" viewBox="0 0 10 18" fill="none" xmlns="http://www.w3.org/2000/svg">
<path d="M2.70338 10.1602C2.63579 10.1602 1.14893 10.1602 0.473091 10.1602C0.112641 10.1602 0 10.025 0 9.68711C0 8.78598 0 7.86233 0 6.9612C0 6.60075 0.135169 6.48811 0.473091 6.48811H2.70338C2.70338 6.42053 2.70338 5.11389 2.70338 4.50563C2.70338 3.60451 2.86107 2.74844 3.31164 1.95995C3.78473 1.14894 4.46057 0.60826 5.31664 0.292866C5.87984 0.0901125 6.44305 0 7.05131 0H9.25906C9.57446 0 9.70963 0.135169 9.70963 0.450563V3.01877C9.70963 3.33417 9.57446 3.46934 9.25906 3.46934C8.6508 3.46934 8.04254 3.46934 7.43428 3.49186C6.82603 3.49186 6.51063 3.78473 6.51063 4.41552C6.4881 5.09136 6.51063 5.74468 6.51063 6.44305H9.12389C9.48435 6.44305 9.61951 6.57822 9.61951 6.93867V9.66458C9.61951 10.025 9.50687 10.1377 9.12389 10.1377C8.31288 10.1377 6.57822 10.1377 6.51063 10.1377V17.4819C6.51063 17.8648 6.39799 18 5.99248 18C5.0463 18 4.12265 18 3.17647 18C2.83855 18 2.70338 17.8648 2.70338 17.5269C2.70338 15.1615 2.70338 10.2278 2.70338 10.1602Z" fill="white"/>
</svg>
