<svg width="45" height="22" viewBox="0 0 45 22" fill="none" xmlns="http://www.w3.org/2000/svg">
<path d="M12.188 0.850083C12.8728 1.52289 12.8702 2.61112 12.1821 3.28074L6.01549 9.28125L43.2422 9.28125C44.213 9.28125 45 10.0507 45 11C45 11.9493 44.213 12.7187 43.2422 12.7187L6.0154 12.7187L12.1822 18.7193C12.8703 19.3889 12.8729 20.4771 12.1881 21.1499C11.5031 21.8228 10.3902 21.8253 9.70206 21.1558L0.51714 12.2182C0.516526 12.2177 0.516087 12.2171 0.515561 12.2166C-0.17078 11.547 -0.172977 10.4552 0.515469 9.78338C0.516087 9.78286 0.516526 9.78226 0.517052 9.78175L9.70198 0.844239C10.39 0.174786 11.503 0.177105 12.188 0.850083Z" fill="#464646"/>
</svg>
