<svg width="18" height="18" viewBox="0 0 18 18" fill="none" xmlns="http://www.w3.org/2000/svg">
<path d="M18.0001 18V11.4074C18.0001 8.16741 17.3026 5.69238 13.5226 5.69238C11.7002 5.69238 10.4852 6.68239 9.99016 7.6274H9.94516V5.98489H6.36768V18H10.1027V12.0374C10.1027 10.4624 10.3952 8.95491 12.3301 8.95491C14.2426 8.95491 14.2651 10.7324 14.2651 12.1274V17.9775H18.0001V18Z" fill="white"/>
<path d="M0.29248 5.98486H4.02747V18H0.29248V5.98486Z" fill="white"/>
<path d="M2.15997 0C0.967488 0 0 0.967452 0 2.15989C0 3.35233 0.967488 4.34229 2.15997 4.34229C3.35246 4.34229 4.31995 3.35233 4.31995 2.15989C4.31995 0.967452 3.35246 0 2.15997 0Z" fill="white"/>
</svg>
