<svg width="386" height="70" viewBox="0 0 386 70" fill="none" xmlns="http://www.w3.org/2000/svg">
<path d="M102.237 49.2379C102.237 49.6926 102.161 50.2988 102.01 51.0566C101.859 51.8144 101.463 52.5723 100.822 53.3301C100.181 54.0879 99.2191 54.7509 97.9366 55.3193C96.6542 55.8498 94.8814 56.115 92.6183 56.115C90.3552 56.115 88.5824 55.8498 87.2999 55.3193C86.0175 54.7509 85.0557 54.0879 84.4145 53.3301C83.7732 52.5723 83.3772 51.8144 83.2263 51.0566C83.0754 50.2609 83 49.6547 83 49.2379V47.817H87.7526V48.3285C87.7526 48.6696 87.7903 49.0485 87.8657 49.4653C87.9789 49.8442 88.2052 50.2231 88.5447 50.602C88.8841 50.943 89.3556 51.2461 89.9591 51.5113C90.6003 51.7387 91.4301 51.8523 92.4485 51.8523C93.5424 51.8523 94.4099 51.7387 95.0511 51.5113C95.6924 51.2461 96.1827 50.943 96.5222 50.602C96.8994 50.261 97.1445 49.901 97.2577 49.5221C97.3708 49.1053 97.4274 48.7453 97.4274 48.4422V47.817V42.8155V42.2472C97.4274 41.7925 97.2954 41.262 97.0314 40.6558C96.7673 40.0116 96.145 39.5191 95.1643 39.1781C94.938 39.1023 94.6551 39.0076 94.3156 38.8939C93.9762 38.7802 93.6744 38.6665 93.4104 38.5529L89.167 37.132C89.0161 37.0562 88.903 37.0183 88.8275 37.0183C86.6776 36.3742 85.1688 35.4459 84.3013 34.2334C83.4338 33.0209 83 31.7326 83 30.3686V30.0276V29.0045V22.0706V20.8771C83 20.4603 83.0754 19.873 83.2263 19.1152C83.3772 18.3195 83.7732 17.5427 84.4145 16.7849C85.0557 16.0271 86.0175 15.383 87.2999 14.8525C88.5824 14.2842 90.3552 14 92.6183 14C94.8814 14 96.6542 14.2842 97.9366 14.8525C99.2191 15.383 100.181 16.0271 100.822 16.7849C101.463 17.5427 101.859 18.3195 102.01 19.1152C102.161 19.873 102.237 20.4603 102.237 20.8771V22.3548H97.4274V21.7296C97.4274 21.3886 97.3708 21.0286 97.2577 20.6497C97.1445 20.2329 96.8994 19.854 96.5222 19.513C96.1827 19.172 95.6924 18.8878 95.0511 18.6605C94.4099 18.3953 93.5424 18.2626 92.4485 18.2626C91.4301 18.2626 90.6003 18.3953 89.9591 18.6605C89.3556 18.8878 88.8841 19.191 88.5447 19.5699C88.2052 19.9488 87.9789 20.3466 87.8657 20.7634C87.7903 21.1423 87.7526 21.5023 87.7526 21.8433V22.3548V29.0045V29.516C87.7526 30.0086 87.8846 30.558 88.1486 31.1643C88.4504 31.7705 89.0916 32.2441 90.0723 32.5852C90.2231 32.6609 90.4117 32.7367 90.638 32.8125C90.8644 32.8883 91.0907 32.9641 91.317 33.0398C91.9959 33.2672 92.7692 33.5324 93.6367 33.8355C94.5419 34.1387 95.3717 34.4418 96.1261 34.7449C96.8805 34.9344 97.5217 35.1617 98.0498 35.4269C98.7287 35.6543 99.3134 35.9953 99.8037 36.45C100.332 36.8668 100.784 37.3593 101.162 37.9277C101.878 38.9886 102.237 40.1632 102.237 41.4515V42.1335V47.817V49.2379Z" fill="white"/>
<path d="M121.104 51.4545V55.7171C118.841 55.7171 117.068 55.4519 115.786 54.9215C114.503 54.3531 113.523 53.69 112.844 52.9322C112.202 52.1744 111.806 51.4166 111.655 50.6588C111.505 49.8631 111.429 49.2569 111.429 48.8401V47.817V29.6297H107.808V25.5944H111.429V18.0353H116.238V25.5944H121.104V29.6297H116.238V47.3623V47.8739C116.238 48.2149 116.276 48.5938 116.351 49.0106C116.465 49.3895 116.691 49.7684 117.03 50.1473C117.37 50.5262 117.841 50.8482 118.445 51.1135C119.086 51.3408 119.916 51.4545 120.934 51.4545H121.104Z" fill="white"/>
<path d="M134.722 25.5944C136.985 25.5944 138.758 25.8786 140.04 26.4469C141.322 26.9774 142.284 27.6215 142.925 28.3793C143.567 29.1371 143.963 29.9139 144.114 30.7096C144.264 31.4674 144.34 32.0547 144.34 32.4715V33.8924V33.9492V35.1996C144.34 35.8437 144.208 36.5636 143.944 37.3593C143.718 38.155 143.152 39.0076 142.247 39.9169C141.832 40.3716 141.36 40.7126 140.832 40.94C140.304 41.1673 139.833 41.3378 139.418 41.4515C138.927 41.603 138.418 41.6788 137.89 41.6788H133.59C132.609 41.6788 131.742 42.0388 130.988 42.7587C130.233 43.4786 129.856 44.369 129.856 45.4299V47.9875C129.856 48.8969 130.026 49.6168 130.365 50.1473C130.516 50.4125 130.686 50.6399 130.874 50.8293C131.063 51.0188 131.346 51.1893 131.723 51.3408C132.025 51.4924 132.402 51.625 132.855 51.7387C133.345 51.8523 133.967 51.9092 134.722 51.9092C135.702 51.9092 136.476 51.8144 137.041 51.625C137.607 51.3977 138.003 51.2082 138.229 51.0566C138.72 50.6777 139.059 50.2231 139.248 49.6926C139.436 49.1621 139.531 48.5938 139.531 47.9875H144.34V49.3516C144.34 50.3746 144.114 51.3219 143.661 52.1934C143.246 53.0648 142.586 53.8226 141.681 54.4668C141.04 54.9214 140.153 55.3193 139.022 55.6603C137.89 56.0013 136.457 56.1718 134.722 56.1718C133.439 56.1718 132.327 56.0582 131.384 55.8308C130.441 55.6414 129.611 55.3951 128.894 55.092C128.215 54.7509 127.649 54.372 127.197 53.9552C126.744 53.5385 126.367 53.1217 126.065 52.7049C125.386 51.7197 125.066 50.583 125.103 49.2947V47.9875V45.4299V33.9492V33.8924V32.4715C125.103 32.0168 125.179 31.4106 125.33 30.6528C125.481 29.895 125.877 29.1371 126.518 28.3793C127.159 27.6215 128.121 26.9774 129.403 26.4469C130.686 25.8786 132.459 25.5944 134.722 25.5944ZM139.531 33.8924V33.3809C139.531 33.0398 139.474 32.6799 139.361 32.301C139.286 31.8842 139.078 31.5053 138.739 31.1643C138.399 30.7854 137.909 30.4823 137.268 30.2549C136.664 29.9897 135.853 29.8571 134.835 29.8571C133.779 29.8571 132.911 29.9897 132.232 30.2549C131.591 30.4823 131.082 30.7664 130.705 31.1074C130.365 31.4485 130.139 31.8274 130.026 32.2441C129.913 32.623 129.856 32.9641 129.856 33.2672V33.8924V33.9492V34.4039V39.1781C129.931 38.837 130.101 38.5718 130.365 38.3824C130.629 38.155 130.931 37.9845 131.27 37.8708C131.61 37.7572 131.949 37.6814 132.289 37.6435C132.628 37.6056 132.892 37.5867 133.081 37.5867H136.306C137.173 37.5867 137.928 37.2835 138.569 36.6773C139.21 36.0332 139.531 35.2754 139.531 34.4039V33.9492V33.8924Z" fill="white"/>
<path d="M168.097 49.4653C168.097 50.1852 168.097 50.8104 168.097 51.3408C168.097 51.8334 168.04 52.2881 167.927 52.7049C167.852 53.0838 167.72 53.4437 167.531 53.7847C167.38 54.1258 167.135 54.4668 166.796 54.8078C166.117 55.4898 165.249 55.9445 164.193 56.1718C163.137 56.4371 162.156 56.4181 161.251 56.115C160.308 55.774 159.271 55.414 158.139 55.0351C157.045 54.6183 156.008 54.2584 155.027 53.9552C154.763 53.8416 154.386 53.709 153.896 53.5574C153.443 53.4058 153.179 53.3111 153.104 53.2732C152.651 53.1217 152.18 52.9322 151.689 52.7049C151.199 52.4775 150.746 52.1555 150.331 51.7387C149.917 51.3219 149.558 50.7725 149.256 50.0904C148.992 49.3705 148.86 48.4801 148.86 47.4192V26.2196H153.613V45.4868V45.8278C153.613 46.5856 153.764 47.2297 154.066 47.7602C154.405 48.2528 154.801 48.6696 155.254 49.0106C155.744 49.3137 156.272 49.56 156.838 49.7494C157.441 49.9389 157.988 50.1283 158.479 50.3178C159.61 50.6967 160.497 50.943 161.138 51.0566C161.779 51.1703 162.251 51.1514 162.552 50.9998C162.892 50.8482 163.099 50.583 163.175 50.2041C163.25 49.7873 163.288 49.2569 163.288 48.6127V44.3501V26.2196H168.097V43.7249V49.4653Z" fill="white"/>
<path d="M183.399 25.5944C185.662 25.5944 187.435 25.8786 188.717 26.4469C189.999 26.9774 190.961 27.6215 191.603 28.3793C192.244 29.1371 192.64 29.9139 192.791 30.7096C192.942 31.4674 193.017 32.0547 193.017 32.4715V33.8924V33.9492V35.1996C193.017 35.8437 192.885 36.5636 192.621 37.3593C192.395 38.155 191.829 39.0076 190.924 39.9169C190.509 40.3716 190.037 40.7126 189.509 40.94C188.981 41.1673 188.51 41.3378 188.095 41.4515C187.604 41.603 187.095 41.6788 186.567 41.6788H182.267C181.286 41.6788 180.419 42.0388 179.665 42.7587C178.91 43.4786 178.533 44.369 178.533 45.4299V47.9875C178.533 48.8969 178.703 49.6168 179.042 50.1473C179.193 50.4125 179.363 50.6399 179.551 50.8293C179.74 51.0188 180.023 51.1893 180.4 51.3408C180.702 51.4924 181.079 51.625 181.532 51.7387C182.022 51.8523 182.644 51.9092 183.399 51.9092C184.379 51.9092 185.153 51.8144 185.718 51.625C186.284 51.3977 186.68 51.2082 186.907 51.0566C187.397 50.6777 187.736 50.2231 187.925 49.6926C188.114 49.1621 188.208 48.5938 188.208 47.9875H193.017V49.3516C193.017 50.3746 192.791 51.3219 192.338 52.1934C191.923 53.0648 191.263 53.8226 190.358 54.4668C189.717 54.9214 188.83 55.3193 187.699 55.6603C186.567 56.0013 185.134 56.1718 183.399 56.1718C182.116 56.1718 181.004 56.0582 180.061 55.8308C179.118 55.6414 178.288 55.3951 177.571 55.092C176.892 54.7509 176.326 54.372 175.874 53.9552C175.421 53.5385 175.044 53.1217 174.742 52.7049C174.063 51.7197 173.743 50.583 173.78 49.2947V47.9875V45.4299V33.9492V33.8924V32.4715C173.78 32.0168 173.856 31.4106 174.007 30.6528C174.158 29.895 174.554 29.1371 175.195 28.3793C175.836 27.6215 176.798 26.9774 178.08 26.4469C179.363 25.8786 181.136 25.5944 183.399 25.5944ZM188.208 33.8924V33.3809C188.208 33.0398 188.151 32.6799 188.038 32.301C187.963 31.8842 187.755 31.5053 187.416 31.1643C187.076 30.7854 186.586 30.4823 185.945 30.2549C185.341 29.9897 184.53 29.8571 183.512 29.8571C182.456 29.8571 181.588 29.9897 180.909 30.2549C180.268 30.4823 179.759 30.7664 179.382 31.1074C179.042 31.4485 178.816 31.8274 178.703 32.2441C178.59 32.623 178.533 32.9641 178.533 33.2672V33.8924V33.9492V34.4039V39.1781C178.608 38.837 178.778 38.5718 179.042 38.3824C179.306 38.155 179.608 37.9845 179.947 37.8708C180.287 37.7572 180.626 37.6814 180.966 37.6435C181.305 37.6056 181.569 37.5867 181.758 37.5867H184.983C185.85 37.5867 186.605 37.2835 187.246 36.6773C187.887 36.0332 188.208 35.2754 188.208 34.4039V33.9492V33.8924Z" fill="white"/>
<path d="M216.831 55.7171H212.021V33.8924V33.3809C212.021 33.0398 211.965 32.6799 211.852 32.301C211.776 31.8842 211.569 31.5053 211.229 31.1643C210.89 30.7854 210.4 30.4823 209.758 30.2549C209.155 29.9897 208.344 29.8571 207.325 29.8571C206.269 29.8571 205.402 29.9897 204.723 30.2549C204.082 30.4823 203.572 30.7664 203.195 31.1074C202.856 31.4485 202.63 31.8274 202.516 32.2441C202.403 32.623 202.347 32.9641 202.347 33.2672V33.8924V55.7171H197.537V33.4945V32.4715C197.537 32.0168 197.613 31.4106 197.764 30.6528C197.915 29.895 198.311 29.1371 198.952 28.3793C199.631 27.6215 200.612 26.9774 201.894 26.4469C203.176 25.8786 204.949 25.5944 207.212 25.5944C209.475 25.5944 211.248 25.8786 212.531 26.4469C213.813 26.9774 214.775 27.6215 215.416 28.3793C216.057 29.1371 216.453 29.9139 216.604 30.7096C216.755 31.4674 216.831 32.0547 216.831 32.4715V33.0398V55.7171Z" fill="white"/>
<path d="M252.964 47.817V49.2947C252.964 50.0147 252.832 50.7535 252.568 51.5113C252.304 52.2691 251.908 52.9701 251.38 53.6142C250.852 54.2205 250.192 54.732 249.4 55.1488C248.608 55.5277 247.665 55.7171 246.571 55.7171H236.556H236.443H233.728V14.5115H238.537H246.571C247.665 14.5115 248.608 14.7199 249.4 15.1367C250.192 15.5156 250.852 16.0271 251.38 16.6713C251.908 17.2775 252.304 17.9595 252.568 18.7173C252.832 19.4751 252.964 20.214 252.964 20.9339V22.4116V47.817ZM248.212 22.4116V21.9001C248.212 20.9529 247.91 20.1572 247.306 19.513C246.741 18.831 245.967 18.49 244.987 18.49H241.592H238.537V51.7387H241.592H244.987C245.967 51.7387 246.741 51.4166 247.306 50.7725C247.91 50.0904 248.212 49.2947 248.212 48.3854V47.817V22.4116Z" fill="white"/>
<path d="M268.211 25.5944C270.474 25.5944 272.247 25.8786 273.529 26.4469C274.811 26.9774 275.773 27.6215 276.414 28.3793C277.056 29.1371 277.452 29.9139 277.603 30.7096C277.753 31.4674 277.829 32.0547 277.829 32.4715V33.8924V33.9492V35.1996C277.829 35.8437 277.697 36.5636 277.433 37.3593C277.207 38.155 276.641 39.0076 275.735 39.9169C275.321 40.3716 274.849 40.7126 274.321 40.94C273.793 41.1673 273.321 41.3378 272.907 41.4515C272.416 41.603 271.907 41.6788 271.379 41.6788H267.079C266.098 41.6788 265.231 42.0388 264.476 42.7587C263.722 43.4786 263.345 44.369 263.345 45.4299V47.9875C263.345 48.8969 263.515 49.6168 263.854 50.1473C264.005 50.4125 264.175 50.6399 264.363 50.8293C264.552 51.0188 264.835 51.1893 265.212 51.3408C265.514 51.4924 265.891 51.625 266.344 51.7387C266.834 51.8523 267.456 51.9092 268.211 51.9092C269.191 51.9092 269.965 51.8144 270.53 51.625C271.096 51.3977 271.492 51.2082 271.718 51.0566C272.209 50.6777 272.548 50.2231 272.737 49.6926C272.925 49.1621 273.02 48.5938 273.02 47.9875H277.829V49.3516C277.829 50.3746 277.603 51.3219 277.15 52.1934C276.735 53.0648 276.075 53.8226 275.17 54.4668C274.528 54.9214 273.642 55.3193 272.511 55.6603C271.379 56.0013 269.946 56.1718 268.211 56.1718C266.928 56.1718 265.815 56.0582 264.872 55.8308C263.93 55.6414 263.1 55.3951 262.383 55.092C261.704 54.7509 261.138 54.372 260.686 53.9552C260.233 53.5385 259.856 53.1217 259.554 52.7049C258.875 51.7197 258.555 50.583 258.592 49.2947V47.9875V45.4299V33.9492V33.8924V32.4715C258.592 32.0168 258.668 31.4106 258.819 30.6528C258.97 29.895 259.366 29.1371 260.007 28.3793C260.648 27.6215 261.61 26.9774 262.892 26.4469C264.175 25.8786 265.947 25.5944 268.211 25.5944ZM273.02 33.8924V33.3809C273.02 33.0398 272.963 32.6799 272.85 32.301C272.775 31.8842 272.567 31.5053 272.228 31.1643C271.888 30.7854 271.398 30.4823 270.757 30.2549C270.153 29.9897 269.342 29.8571 268.324 29.8571C267.268 29.8571 266.4 29.9897 265.721 30.2549C265.08 30.4823 264.571 30.7664 264.194 31.1074C263.854 31.4485 263.628 31.8274 263.515 32.2441C263.401 32.623 263.345 32.9641 263.345 33.2672V33.8924V33.9492V34.4039V39.1781C263.42 38.837 263.59 38.5718 263.854 38.3824C264.118 38.155 264.42 37.9845 264.759 37.8708C265.099 37.7572 265.438 37.6814 265.778 37.6435C266.117 37.6056 266.381 37.5867 266.57 37.5867H269.795C270.662 37.5867 271.417 37.2835 272.058 36.6773C272.699 36.0332 273.02 35.2754 273.02 34.4039V33.9492V33.8924Z" fill="white"/>
<path d="M327.397 50.0904C327.397 51.5303 327.34 52.6291 327.227 53.3869C327.151 54.1068 326.774 54.8078 326.095 55.4898C325.416 56.1718 324.549 56.6265 323.493 56.8539C322.437 57.0812 321.456 57.0433 320.551 56.7402C319.608 56.4371 318.57 56.096 317.439 55.7171C316.307 55.3004 315.251 54.9215 314.27 54.5804C314.082 54.5047 313.799 54.4099 313.422 54.2963C313.082 54.1826 312.799 54.0879 312.573 54.0121C312.422 54.5047 312.102 54.9972 311.611 55.4898C310.932 56.1718 310.065 56.6265 309.009 56.8539C307.953 57.0812 306.972 57.0433 306.067 56.7402C305.124 56.4371 304.086 56.096 302.955 55.7171C301.861 55.3004 300.824 54.9215 299.843 54.5804C299.579 54.5047 299.202 54.391 298.711 54.2394C298.259 54.05 297.995 53.9363 297.919 53.8984C297.467 53.7468 296.976 53.5574 296.448 53.3301C295.958 53.1027 295.505 52.7806 295.09 52.3639C294.676 51.9092 294.336 51.3408 294.072 50.6588C293.808 49.9389 293.676 49.0106 293.676 47.8739V47.4192V14.5115H298.429V46.1688V46.453C298.429 47.2108 298.579 47.8549 298.881 48.3854C299.221 48.878 299.617 49.2947 300.069 49.6358C300.56 49.9768 301.088 50.242 301.654 50.4315C302.257 50.6209 302.804 50.8104 303.294 50.9998C304.426 51.3787 305.312 51.625 305.953 51.7387C306.595 51.8523 307.066 51.8334 307.368 51.6818C307.707 51.5303 307.915 51.265 307.99 50.8861C308.066 50.4693 308.103 49.9389 308.103 49.2947V44.3501V14.5115H312.913V46.112V46.453C312.913 47.2108 313.063 47.8549 313.365 48.3854C313.705 48.878 314.101 49.2947 314.553 49.6358C315.044 49.9768 315.572 50.242 316.138 50.4315C316.703 50.6209 317.231 50.8104 317.722 50.9998C318.853 51.3787 319.74 51.625 320.381 51.7387C321.022 51.8523 321.512 51.8334 321.852 51.6818C322.191 51.5303 322.399 51.265 322.474 50.8861C322.55 50.4693 322.587 49.9389 322.587 49.2947V44.3501V14.5115H327.397V48.7264V50.0904Z" fill="white"/>
<path d="M352.252 48.3854V49.2947C352.252 49.7494 352.177 50.3557 352.026 51.1135C351.875 51.8713 351.479 52.6291 350.838 53.3869C350.196 54.1447 349.235 54.8078 347.952 55.3761C346.67 55.9066 344.897 56.1718 342.634 56.1718C340.371 56.1718 338.598 55.9066 337.315 55.3761C336.033 54.8078 335.071 54.1447 334.43 53.3869C333.789 52.6291 333.393 51.8713 333.242 51.1135C333.091 50.3178 333.015 49.7115 333.015 49.2947V48.6696V32.4715C333.015 32.0547 333.091 31.4674 333.242 30.7096C333.393 29.9139 333.789 29.1371 334.43 28.3793C335.071 27.6215 336.033 26.9774 337.315 26.4469C338.598 25.8786 340.371 25.5944 342.634 25.5944C344.897 25.5944 346.67 25.8786 347.952 26.4469C349.235 26.9774 350.196 27.6215 350.838 28.3793C351.479 29.1371 351.875 29.895 352.026 30.6528C352.177 31.4106 352.252 32.0168 352.252 32.4715V48.3854ZM347.443 47.817V33.9492V33.324C347.443 32.983 347.386 32.623 347.273 32.2441C347.16 31.8274 346.915 31.4485 346.538 31.1074C346.198 30.7664 345.708 30.4823 345.067 30.2549C344.425 29.9897 343.558 29.8571 342.464 29.8571C341.446 29.8571 340.616 29.9897 339.975 30.2549C339.371 30.4823 338.9 30.7854 338.56 31.1643C338.221 31.5053 337.994 31.8842 337.881 32.301C337.806 32.7178 337.768 33.0777 337.768 33.3809V33.9492V47.817V48.3854C337.768 48.6885 337.806 49.0485 337.881 49.4653C337.994 49.882 338.221 50.2799 338.56 50.6588C338.9 50.9998 339.371 51.3029 339.975 51.5682C340.616 51.7955 341.446 51.9092 342.464 51.9092C343.558 51.9092 344.425 51.7955 345.067 51.5682C345.708 51.3029 346.198 50.9998 346.538 50.6588C346.915 50.3178 347.16 49.9578 347.273 49.5789C347.386 49.1621 347.443 48.7832 347.443 48.4422V47.817Z" fill="white"/>
<path d="M359.295 55.7171V14.5115H364.047V55.7171H359.295Z" fill="white"/>
<path d="M378.022 26.0491H382.832V30.0844H378.022V55.7171H373.213V30.0844H369.592V26.0491H373.213V22.0138V20.9339C373.213 20.5171 373.289 19.9298 373.44 19.172C373.591 18.3763 373.987 17.5996 374.628 16.8418C375.269 16.084 376.231 15.4398 377.513 14.9094C378.796 14.341 380.568 14.0568 382.832 14.0568C383.435 14.0568 383.982 14.0568 384.472 14.0568C384.963 14.0189 385.472 14.0379 386 14.1137L384.925 18.2058C384.472 18.2437 384.095 18.2626 383.793 18.2626C383.492 18.2626 383.133 18.2816 382.718 18.3195C381.662 18.3195 380.814 18.4521 380.172 18.7173C379.569 18.9447 379.097 19.2478 378.758 19.6267C378.456 19.9677 378.249 20.3466 378.136 20.7634C378.06 21.1423 378.022 21.5023 378.022 21.8433V22.3548V26.0491Z" fill="white"/>
<path d="M0 0V32.4012L12.1892 18.3677L0 0Z" fill="white"/>
<path d="M41.8071 18.3677L53.9963 32.4012V0L41.8071 18.3677Z" fill="white"/>
<path d="M17.6804 64.6347L27.0026 70L36.3163 64.6347V59.5545L27.0026 64.9198L17.6804 59.5545V64.6347Z" fill="white"/>
<path d="M53.9965 32.4013L41.8073 27.9917L32.1331 32.6025V57.6263L40.8349 52.6216L40.2312 48.2791L53.9965 32.4013Z" fill="white"/>
<path d="M13.1701 52.6216L21.8635 57.6263V32.6025L12.1892 27.9917L0 32.4013L13.7652 48.2791L13.1701 52.6216Z" fill="white"/>
</svg>
