<svg width="50" height="65" viewBox="0 0 50 65" fill="none" xmlns="http://www.w3.org/2000/svg">
<circle cx="2.5" cy="2.5" r="2.5" transform="rotate(90 2.5 2.5)" fill="#2DAB52"/>
<circle cx="2.5" cy="17.5" r="2.5" transform="rotate(90 2.5 17.5)" fill="#2DAB52"/>
<circle cx="2.5" cy="32.5" r="2.5" transform="rotate(90 2.5 32.5)" fill="#2DAB52"/>
<circle cx="17.5" cy="2.5" r="2.5" transform="rotate(90 17.5 2.5)" fill="#2DAB52"/>
<circle cx="17.5" cy="17.5" r="2.5" transform="rotate(90 17.5 17.5)" fill="#2DAB52"/>
<circle cx="17.5" cy="32.5" r="2.5" transform="rotate(90 17.5 32.5)" fill="#2DAB52"/>
<circle cx="32.5" cy="2.5" r="2.5" transform="rotate(90 32.5 2.5)" fill="#2DAB52"/>
<circle cx="32.5" cy="17.5" r="2.5" transform="rotate(90 32.5 17.5)" fill="#2DAB52"/>
<circle cx="32.5" cy="32.5" r="2.5" transform="rotate(90 32.5 32.5)" fill="#2DAB52"/>
<circle cx="47.5" cy="2.5" r="2.5" transform="rotate(90 47.5 2.5)" fill="#2DAB52"/>
<circle cx="47.5" cy="17.5" r="2.5" transform="rotate(90 47.5 17.5)" fill="#2DAB52"/>
<circle cx="47.5" cy="32.5" r="2.5" transform="rotate(90 47.5 32.5)" fill="#2DAB52"/>
<circle cx="2.5" cy="47.5" r="2.5" transform="rotate(90 2.5 47.5)" fill="#2DAB52"/>
<circle cx="2.5" cy="62.5" r="2.5" transform="rotate(90 2.5 62.5)" fill="#2DAB52"/>
<circle cx="17.5" cy="47.5" r="2.5" transform="rotate(90 17.5 47.5)" fill="#2DAB52"/>
<circle cx="17.5" cy="62.5" r="2.5" transform="rotate(90 17.5 62.5)" fill="#2DAB52"/>
<circle cx="32.5" cy="47.5" r="2.5" transform="rotate(90 32.5 47.5)" fill="#2DAB52"/>
<circle cx="32.5" cy="62.5" r="2.5" transform="rotate(90 32.5 62.5)" fill="#2DAB52"/>
<circle cx="47.5" cy="47.5" r="2.5" transform="rotate(90 47.5 47.5)" fill="#2DAB52"/>
<circle cx="47.5" cy="62.5" r="2.5" transform="rotate(90 47.5 62.5)" fill="#2DAB52"/>
</svg>
