<svg width="302" height="391" viewBox="0 0 302 391" fill="none" xmlns="http://www.w3.org/2000/svg">
<path d="M121.277 4.90229L124.759 2.89193L125.509 4.19097L127.25 3.18579C127.902 2.80916 128.592 2.52614 129.3 2.33643L128.912 0.887523C130.607 0.4335 132.393 0.433499 134.088 0.887523L133.7 2.33643C134.408 2.52614 135.098 2.80916 135.75 3.18579L137.491 4.19092L138.241 2.89188L141.723 4.90224L140.973 6.20128L144.455 8.21163L145.205 6.91259L148.687 8.92296L147.937 10.222L151.419 12.2324L152.169 10.9333L155.651 12.9437L154.901 14.2427L158.383 16.2531L159.133 14.954L162.615 16.9644L161.865 18.2634L165.347 20.2738L166.097 18.9748L169.579 20.9851L168.829 22.2842L172.311 24.2945L173.061 22.9955L176.543 25.0058L175.793 26.3049L179.275 28.3152L180.025 27.0162L183.508 29.0266L182.758 30.3256L186.24 32.336L186.99 31.0369L190.472 33.0473L189.722 34.3463L193.204 36.3567L193.954 35.0576L197.436 37.068L196.686 38.367L200.168 40.3774L200.918 39.0784L204.4 41.0887L203.65 42.3878L207.132 44.3981L207.882 43.0991L211.364 45.1095L210.614 46.4085L214.096 48.4188L214.846 47.1198L218.328 49.1302L217.578 50.4292L221.06 52.4396L221.81 51.1405L225.292 53.1509L224.542 54.4499L228.024 56.4603L228.774 55.1612L232.256 57.1716L231.506 58.4706L234.988 60.481L235.738 59.182L239.22 61.1923L238.47 62.4914L241.952 64.5017L242.702 63.2027L246.184 65.2131L245.434 66.5121L248.916 68.5224L249.666 67.2234L253.148 69.2338L252.398 70.5328L255.881 72.5432L256.631 71.2441L260.113 73.2545L259.363 74.5535L262.845 76.5639L263.595 75.2648L267.077 77.2752L266.327 78.5742L269.809 80.5846L270.559 79.2856L274.041 81.2959L273.291 82.595L276.773 84.6053L277.523 83.3063L281.005 85.3166L280.255 86.6157L283.737 88.626L284.487 87.327L287.969 89.3374L287.219 90.6364L290.701 92.6468L291.451 91.3477L294.933 93.3581L294.183 94.6571L295.924 95.6623C296.576 96.0389 297.166 96.4945 297.685 97.0129L298.745 95.9523C299.986 97.193 300.879 98.7405 301.333 100.435L299.885 100.824C300.074 101.532 300.174 102.27 300.174 103.024V105.034H301.674V109.054H300.174V113.075H301.674V117.096H300.174V121.117H301.674V125.137H300.174V129.158H301.674V133.179H300.174V137.2H301.674V141.22H300.174V145.241H301.674V149.262H300.174V153.282H301.674V157.303H300.174V161.324H301.674V165.345H300.174V169.365H301.674V173.386H300.174V177.407H301.674V181.427H300.174V185.448H301.674V189.469H300.174V193.49H301.674V197.51H300.174V201.531H301.674V205.552H300.174V209.572H301.674V213.593H300.174V217.614H301.674V221.635H300.174V225.655H301.674V229.676H300.174V233.697H301.674V237.718H300.174V241.738H301.674V245.759H300.174V249.78H301.674V253.8H300.174V257.821H301.674V261.842H300.174V265.863H301.674V269.883H300.174V273.904H301.674V277.925H300.174V281.945H301.674V285.966H300.174V287.977C300.174 288.73 300.074 289.468 299.885 290.176L301.333 290.565C300.879 292.26 299.986 293.807 298.745 295.048L297.685 293.987C297.166 294.506 296.576 294.961 295.924 295.338L294.183 296.343L294.933 297.642L291.451 299.652L290.701 298.353L287.219 300.364L287.969 301.663L284.487 303.673L283.737 302.374L280.255 304.384L281.005 305.683L277.523 307.694L276.773 306.395L273.291 308.405L274.041 309.704L270.559 311.714L269.809 310.415L266.327 312.426L267.077 313.725L263.595 315.735L262.845 314.436L259.363 316.446L260.113 317.745L256.631 319.756L255.881 318.457L252.398 320.467L253.148 321.766L249.666 323.777L248.916 322.478L245.434 324.488L246.184 325.787L242.702 327.797L241.952 326.498L238.47 328.509L239.22 329.808L235.738 331.818L234.988 330.519L231.506 332.529L232.256 333.828L228.774 335.839L228.024 334.54L224.542 336.55L225.292 337.849L221.81 339.859L221.06 338.56L217.578 340.571L218.328 341.87L214.846 343.88L214.096 342.581L210.614 344.591L211.364 345.891L207.882 347.901L207.132 346.602L203.65 348.612L204.4 349.911L200.918 351.922L200.168 350.623L196.686 352.633L197.436 353.932L193.954 355.942L193.204 354.643L189.722 356.654L190.472 357.953L186.99 359.963L186.24 358.664L182.758 360.674L183.508 361.973L180.026 363.984L179.276 362.685L175.794 364.695L176.544 365.994L173.061 368.004L172.311 366.705L168.829 368.716L169.579 370.015L166.097 372.025L165.347 370.726L161.865 372.737L162.615 374.036L159.133 376.046L158.383 374.747L154.901 376.757L155.651 378.056L152.169 380.067L151.419 378.768L147.937 380.778L148.687 382.077L145.205 384.087L144.455 382.788L140.973 384.799L141.723 386.098L138.241 388.108L137.491 386.809L135.75 387.814C135.098 388.191 134.408 388.474 133.7 388.664L134.088 390.112C132.393 390.566 130.607 390.566 128.912 390.112L129.3 388.664C128.592 388.474 127.902 388.191 127.25 387.814L125.509 386.809L124.759 388.108L121.277 386.098L122.027 384.799L118.545 382.788L117.795 384.087L114.313 382.077L115.063 380.778L111.581 378.768L110.831 380.067L107.349 378.056L108.099 376.757L104.617 374.747L103.867 376.046L100.385 374.036L101.135 372.737L97.6527 370.726L96.9027 372.025L93.4207 370.015L94.1707 368.716L90.6886 366.705L89.9386 368.005L86.4566 365.994L87.2066 364.695L83.7245 362.685L82.9745 363.984L79.4925 361.973L80.2425 360.674L76.7604 358.664L76.0104 359.963L72.5284 357.953L73.2784 356.654L69.7963 354.643L69.0463 355.942L65.5643 353.932L66.3143 352.633L62.8322 350.623L62.0822 351.922L58.6002 349.911L59.3502 348.612L55.8681 346.602L55.1181 347.901L51.6361 345.891L52.3861 344.592L48.9041 342.581L48.1541 343.88L44.672 341.87L45.422 340.571L41.94 338.56L41.19 339.859L37.7079 337.849L38.4579 336.55L34.9759 334.54L34.2259 335.839L30.7438 333.828L31.4938 332.529L28.0118 330.519L27.2618 331.818L23.7797 329.808L24.5297 328.509L21.0477 326.498L20.2977 327.797L16.8156 325.787L17.5656 324.488L14.0836 322.478L13.3336 323.777L9.85155 321.766L10.6015 320.467L7.11951 318.457L6.36951 319.756L2.88747 317.746L3.63747 316.446L0.155418 314.436L-0.594574 315.735L-4.07663 313.725L-3.32663 312.426L-6.80867 310.415L-7.55867 311.714L-11.0407 309.704L-10.2907 308.405L-13.7728 306.395L-14.5228 307.694L-18.0048 305.683L-17.2548 304.384L-20.7368 302.374L-21.4868 303.673L-24.9689 301.663L-24.2189 300.364L-27.7009 298.353L-28.4509 299.652L-31.933 297.642L-31.183 296.343L-32.924 295.338C-33.5763 294.961 -34.1662 294.506 -34.6845 293.987L-35.7452 295.048C-36.9858 293.807 -37.8793 292.26 -38.3335 290.565L-36.8846 290.176C-37.0744 289.468 -37.174 288.73 -37.174 287.977V285.966H-38.674V281.946H-37.174V277.925H-38.674V273.904H-37.174V269.883H-38.674V265.863H-37.174V261.842H-38.674V257.821H-37.174V253.8H-38.674V249.78H-37.174V245.759H-38.674V241.738H-37.174V237.718H-38.674V233.697H-37.174V229.676H-38.674V225.655H-37.174V221.635H-38.674V217.614H-37.174V213.593H-38.674V209.573H-37.174V205.552H-38.674V201.531H-37.174V197.51H-38.674V193.49H-37.174V189.469H-38.674V185.448H-37.174V181.428H-38.674V177.407H-37.174V173.386H-38.674V169.365H-37.174V165.345H-38.674V161.324H-37.174V157.303H-38.674V153.282H-37.174V149.262H-38.674V145.241H-37.174V141.22H-38.674V137.2H-37.174V133.179H-38.674V129.158H-37.174V125.137H-38.674V121.117H-37.174V117.096H-38.674V113.075H-37.174V109.055H-38.674V105.034H-37.174V103.024C-37.174 102.27 -37.0744 101.532 -36.8846 100.824L-38.3335 100.435C-37.8793 98.7405 -36.9858 97.193 -35.7452 95.9523L-34.6845 97.0129C-34.1661 96.4945 -33.5763 96.0389 -32.924 95.6623L-31.1831 94.6572L-31.9331 93.3581L-28.451 91.3478L-27.701 92.6468L-24.219 90.6365L-24.969 89.3374L-21.4869 87.327L-20.7369 88.6261L-17.2549 86.6157L-18.0049 85.3167L-14.5228 83.3063L-13.7728 84.6054L-10.2908 82.595L-11.0408 81.296L-7.55875 79.2856L-6.80875 80.5846L-3.3267 78.5743L-4.0767 77.2752L-0.594658 75.2649L0.155342 76.5639L3.63739 74.5536L2.88739 73.2545L6.36944 71.2442L7.11944 72.5432L10.6015 70.5328L9.85149 69.2338L13.3335 67.2234L14.0835 68.5225L17.5656 66.5121L16.8156 65.2131L20.2976 63.2027L21.0476 64.5018L24.5297 62.4914L23.7797 61.1924L27.2617 59.182L28.0117 60.481L31.4938 58.4707L30.7438 57.1716L34.2258 55.1613L34.9758 56.4603L38.4579 54.45L37.7079 53.1509L41.1899 51.1406L41.9399 52.4396L45.422 50.4292L44.672 49.1302L48.154 47.1198L48.904 48.4189L52.386 46.4085L51.636 45.1095L55.1181 43.0991L55.8681 44.3982L59.3501 42.3878L58.6001 41.0888L62.0822 39.0784L62.8322 40.3774L66.3142 38.3671L65.5642 37.068L69.0463 35.0577L69.7963 36.3567L73.2783 34.3464L72.5283 33.0473L76.0104 31.0369L76.7604 32.336L80.2424 30.3256L79.4924 29.0266L82.9745 27.0162L83.7245 28.3153L87.2065 26.3049L86.4565 25.0059L89.9385 22.9955L90.6885 24.2946L94.1706 22.2842L93.4206 20.9852L96.9026 18.9748L97.6526 20.2738L101.135 18.2635L100.385 16.9644L103.867 14.9541L104.617 16.2531L108.099 14.2428L107.349 12.9437L110.831 10.9334L111.581 12.2324L115.063 10.222L114.313 8.92301L117.795 6.91265L118.545 8.21169L122.027 6.20133L121.277 4.90229Z" stroke="#2DAB52" stroke-width="3" stroke-dasharray="4 4"/>
</svg>
