<svg width="45" height="22" viewBox="0 0 45 22" fill="none" xmlns="http://www.w3.org/2000/svg">
<path d="M32.812 0.850083C32.1272 1.52289 32.1298 2.61112 32.8179 3.28074L38.9845 9.28125L1.75781 9.28125C0.786972 9.28125 -5.07293e-07 10.0507 -4.658e-07 11C-4.24306e-07 11.9493 0.786972 12.7187 1.75781 12.7187L38.9846 12.7187L32.8178 18.7193C32.1297 19.3889 32.1271 20.4771 32.8119 21.1499C33.4969 21.8228 34.6098 21.8253 35.2979 21.1558L44.4829 12.2182C44.4835 12.2177 44.4839 12.2171 44.4844 12.2166C45.1708 11.547 45.173 10.4552 44.4845 9.78338C44.4839 9.78286 44.4835 9.78226 44.4829 9.78175L35.298 0.844239C34.61 0.174786 33.497 0.177105 32.812 0.850083Z" fill="#00A04D"/>
</svg>
