<svg width="23" height="18" viewBox="0 0 23 18" fill="none" xmlns="http://www.w3.org/2000/svg">
<path d="M22.1198 2.12903C21.2903 2.48848 20.4332 2.73733 19.5207 2.84793C20.4608 2.29493 21.1797 1.41014 21.5115 0.331797C20.6267 0.857143 19.659 1.21659 18.6359 1.43779C17.8065 0.552996 16.6175 0 15.318 0C12.8018 0 10.7834 2.04608 10.7834 4.53456C10.7834 4.89401 10.8111 5.22581 10.894 5.5576C7.13364 5.3917 3.81567 3.56682 1.57604 0.829493C-0.0276496 3.70507 1.76959 6.08295 2.95853 6.88479C2.23963 6.88479 1.52074 6.66359 0.912442 6.3318C0.912442 8.57143 2.48848 10.424 4.53456 10.8387C4.09217 10.977 3.09677 11.0599 2.48848 10.9217C3.06912 12.7189 4.75576 14.0461 6.71889 14.0737C5.17051 15.2903 2.90323 16.2581 0 15.9539C2.01843 17.2535 4.39631 18 6.96774 18C15.318 18 19.8525 11.0876 19.8525 5.11521C19.8525 4.92166 19.8525 4.72811 19.8249 4.53456C20.765 3.84332 21.5392 3.04147 22.1198 2.12903Z" fill="white"/>
</svg>
