<svg width="59" height="209" viewBox="0 0 59 209" fill="none" xmlns="http://www.w3.org/2000/svg">
<path d="M-42.5854 4.82279L-39.1951 2.86543L-38.4451 4.16447L-36.75 3.18579C-36.0977 2.80916 -35.4082 2.52614 -34.7001 2.33643L-35.0882 0.887524C-33.3934 0.433501 -31.6066 0.4335 -29.9118 0.887523L-30.2999 2.33643C-29.5918 2.52614 -28.9023 2.80916 -28.25 3.18579L-26.5549 4.16446L-25.8049 2.86543L-22.4146 4.82278L-23.1646 6.12182L-19.7744 8.07917L-19.0244 6.78013L-15.6342 8.73749L-16.3842 10.0365L-12.9939 11.9939L-12.2439 10.6948L-8.8537 12.6522L-9.6037 13.9512L-6.21346 15.9086L-5.46346 14.6096L-2.07321 16.5669L-2.82321 17.866L0.567017 19.8233L1.31702 18.5243L4.70726 20.4816L3.95726 21.7807L7.34749 23.738L8.09749 22.439L11.4877 24.3963L10.7377 25.6954L14.128 27.6527L14.878 26.3537L18.2682 28.311L17.5182 29.6101L20.9084 31.5674L21.6584 30.2684L25.0487 32.2257L24.2987 33.5248L27.6889 35.4821L28.4389 34.1831L31.8291 36.1405L31.0791 37.4395L34.4694 39.3968L35.2194 38.0978L38.6096 40.0552L37.8596 41.3542L41.2498 43.3116L41.9998 42.0125L45.3901 43.9699L44.6401 45.2689L48.0303 47.2263L48.7803 45.9272L52.1706 47.8846L51.4206 49.1836L53.1157 50.1623C53.768 50.5389 54.3578 50.9945 54.8762 51.5129L55.9369 50.4523C57.1775 51.693 58.0709 53.2405 58.5251 54.9352L57.0763 55.3235C57.2661 56.0317 57.3657 56.7702 57.3657 57.5235V59.4809H58.8657V63.3956H57.3657V67.3103H58.8657V71.225H57.3657V75.1397H58.8657V79.0544H57.3657V82.9691H58.8657V86.8838H57.3657V90.7985H58.8657V94.7132H57.3657V98.6279H58.8657V102.543H57.3657V106.457H58.8657V110.372H57.3657V114.287H58.8657V118.201H57.3657V122.116H58.8657V126.031H57.3657V129.946H58.8657V133.86H57.3657V137.775H58.8657V141.69H57.3657V145.604H58.8657V149.519H57.3657V151.477C57.3657 152.23 57.2661 152.968 57.0763 153.676L58.5251 154.065C58.0709 155.76 57.1775 157.307 55.9369 158.548L54.8762 157.487C54.3578 158.006 53.768 158.461 53.1157 158.838L51.4206 159.816L52.1706 161.115L48.7803 163.073L48.0303 161.774L44.6401 163.731L45.3901 165.03L41.9998 166.987L41.2498 165.688L37.8596 167.646L38.6096 168.945L35.2194 170.902L34.4694 169.603L31.0791 171.561L31.8291 172.86L28.4389 174.817L27.6889 173.518L24.2987 175.475L25.0487 176.774L21.6584 178.732L20.9084 177.433L17.5182 179.39L18.2682 180.689L14.8779 182.646L14.1279 181.347L10.7377 183.305L11.4877 184.604L8.09747 186.561L7.34747 185.262L3.95724 187.219L4.70724 188.518L1.317 190.476L0.567001 189.177L-2.82323 191.134L-2.07323 192.433L-5.46347 194.39L-6.21347 193.091L-9.6037 195.049L-8.8537 196.348L-12.2439 198.305L-12.9939 197.006L-16.3842 198.963L-15.6342 200.263L-19.0244 202.22L-19.7744 200.921L-23.1646 202.878L-22.4146 204.177L-25.8049 206.135L-26.5549 204.836L-28.25 205.814C-28.9023 206.191 -29.5918 206.474 -30.2999 206.664L-29.9118 208.112C-31.6066 208.567 -33.3934 208.567 -35.0882 208.112L-34.7001 206.664C-35.4082 206.474 -36.0977 206.191 -36.75 205.814L-38.4451 204.836L-39.1951 206.135L-42.5854 204.177L-41.8354 202.878L-45.2256 200.921L-45.9756 202.22L-49.3658 200.263L-48.6158 198.963L-52.0061 197.006L-52.7561 198.305L-56.1463 196.348L-55.3963 195.049L-58.7865 193.091L-59.5365 194.39L-62.9268 192.433L-62.1768 191.134L-65.567 189.177L-66.317 190.476L-69.7073 188.518L-68.9573 187.219L-72.3475 185.262L-73.0975 186.561L-76.4877 184.604L-75.7377 183.305L-79.128 181.347L-79.878 182.646L-83.2682 180.689L-82.5182 179.39L-85.9084 177.433L-86.6584 178.732L-90.0487 176.774L-89.2987 175.475L-92.6889 173.518L-93.4389 174.817L-96.8291 172.86L-96.0791 171.561L-99.4694 169.603L-100.219 170.902L-103.61 168.945L-102.86 167.646L-106.25 165.688L-107 166.987L-110.39 165.03L-109.64 163.731L-113.03 161.774L-113.78 163.073L-117.171 161.115L-116.421 159.816L-118.116 158.838C-118.768 158.461 -119.358 158.006 -119.876 157.487L-120.937 158.548C-122.178 157.307 -123.071 155.76 -123.525 154.065L-122.076 153.676C-122.266 152.968 -122.366 152.23 -122.366 151.477V149.519H-123.866V145.604H-122.366V141.69H-123.866V137.775H-122.366V133.86H-123.866V129.946H-122.366V126.031H-123.866V122.116H-122.366V118.201H-123.866V114.287H-122.366V110.372H-123.866V106.457H-122.366V102.543H-123.866V98.6279H-122.366V94.7132H-123.866V90.7985H-122.366V86.8838H-123.866V82.9691H-122.366V79.0544H-123.866V75.1397H-122.366V71.225H-123.866V67.3103H-122.366V63.3956H-123.866V59.4809H-122.366V57.5235C-122.366 56.7702 -122.266 56.0317 -122.076 55.3235L-123.525 54.9352C-123.071 53.2405 -122.178 51.693 -120.937 50.4523L-119.876 51.5129C-119.358 50.9945 -118.768 50.5389 -118.116 50.1623L-116.421 49.1836L-117.171 47.8846L-113.78 45.9272L-113.03 47.2263L-109.64 45.2689L-110.39 43.9699L-107 42.0125L-106.25 43.3116L-102.86 41.3542L-103.61 40.0552L-100.219 38.0978L-99.4694 39.3968L-96.0791 37.4395L-96.8291 36.1404L-93.4389 34.1831L-92.6889 35.4821L-89.2987 33.5248L-90.0487 32.2257L-86.6584 30.2684L-85.9084 31.5674L-82.5182 29.6101L-83.2682 28.311L-79.8779 26.3537L-79.1279 27.6527L-75.7377 25.6954L-76.4877 24.3963L-73.0975 22.439L-72.3475 23.738L-68.9572 21.7807L-69.7072 20.4816L-66.317 18.5243L-65.567 19.8233L-62.1768 17.8659L-62.9268 16.5669L-59.5365 14.6096L-58.7865 15.9086L-55.3963 13.9512L-56.1463 12.6522L-52.7561 10.6948L-52.0061 11.9939L-48.6158 10.0365L-49.3658 8.73749L-45.9756 6.78014L-45.2256 8.07918L-41.8354 6.12182L-42.5854 4.82279Z" stroke="#2DAB52" stroke-width="3" stroke-dasharray="4 4"/>
</svg>
